<svg version="1.1" id="Capa_1" xmlns="http://www.w3.org/2000/svg" x="0" y="0" viewBox="0 0 52.966 52.966" style="enable-background:new 0 0 52.966 52.966" xml:space="preserve"><circle style="fill:#57abc1" cx="21.983" cy="21" r="20"/><path style="fill:none;stroke:#556080;stroke-width:2px;stroke-linecap:round;stroke-miterlimit:10" d="m35.437 35.798 15.546 16.168"/><path style="fill:#7ccbd8" d="M3.002 27.253a19.864 19.864 0 0 0 4.167 7.146L35.382 6.186a19.858 19.858 0 0 0-7.146-4.167L3.002 27.253z"/><path style="fill:#556080" d="M21.983 42c-11.58 0-21-9.42-21-21s9.42-21 21-21 21 9.42 21 21-9.421 21-21 21zm0-40c-10.477 0-19 8.523-19 19s8.523 19 19 19 19-8.523 19-19-8.524-19-19-19z"/></svg>